<?xml version="1.0" encoding="UTF-8" standalone="no"?>
<svg
   width="456"
   height="456"
   viewBox="0 0 456 456"
   version="1.1"
   xml:space="preserve"
   style="fill-rule:evenodd;clip-rule:evenodd;stroke-linejoin:round;stroke-miterlimit:2;"
   id="svg4"
   sodipodi:docname="splash.svg"
   inkscape:version="1.4.2 (f4327f4, 2025-05-13)"
   xmlns:inkscape="http://www.inkscape.org/namespaces/inkscape"
   xmlns:sodipodi="http://sodipodi.sourceforge.net/DTD/sodipodi-0.dtd"
   xmlns="http://www.w3.org/2000/svg"
   xmlns:svg="http://www.w3.org/2000/svg"><defs
   id="defs4" /><sodipodi:namedview
   id="namedview4"
   pagecolor="#ffffff"
   bordercolor="#000000"
   borderopacity="0.25"
   inkscape:showpageshadow="2"
   inkscape:pageopacity="0.0"
   inkscape:pagecheckerboard="0"
   inkscape:deskcolor="#d1d1d1"
   inkscape:zoom="1.7982456"
   inkscape:cx="228"
   inkscape:cy="272.4878"
   inkscape:window-width="1920"
   inkscape:window-height="1001"
   inkscape:window-x="-9"
   inkscape:window-y="-9"
   inkscape:window-maximized="1"
   inkscape:current-layer="svg4" />
    
    
    
    
<path
   d="m 410.44876,297.56587 c 0,-6.20185 -4.96545,-11.78356 -11.79297,-11.78356 H 49.831997 c -6.206831,0 -11.792974,4.96151 -11.792974,11.78356 v 11.78357 c 0,6.20187 4.965465,11.78356 11.792974,11.78356 H 398.65579 c 6.20683,0 11.79297,-4.96149 11.79297,-11.78356 v -11.78357"
   fill="#b2c1c0"
   id="path1"
   style="stroke-width:6.20436" /><ellipse
   cx="101.96935"
   cy="326.71466"
   rx="40.965076"
   ry="40.312168"
   fill="#3e4347"
   id="ellipse1"
   style="stroke-width:6.20436" /><ellipse
   cx="101.96935"
   cy="326.71466"
   rx="23.585953"
   ry="22.946926"
   fill="#b2c1c0"
   id="ellipse2"
   style="stroke-width:6.20436" /><ellipse
   cx="340.93234"
   cy="326.71466"
   rx="40.965076"
   ry="40.312168"
   fill="#3e4347"
   id="ellipse3"
   style="stroke-width:6.20436" /><ellipse
   cx="340.93234"
   cy="326.71466"
   rx="23.585953"
   ry="22.946926"
   fill="#b2c1c0"
   id="ellipse4"
   style="stroke-width:6.20436" /><path
   d="M 363.89755,100.34635 H 200.65793 c -19.24117,0 -34.75825,15.50469 -34.75825,34.73047 V 285.78231 H 398.65579 V 135.07682 c 0,-19.22578 -15.51706,-34.73047 -34.75824,-34.73047"
   fill="#62727a"
   id="path4"
   style="stroke-width:6.20436" /><path
   d="m 119.34847,146.8604 c -27.930729,0 -34.758232,0 -34.758232,46.51403 0,34.73049 -34.758241,34.73049 -34.758241,69.46096 v 22.94692 H 166.52038 V 146.8604 h -47.17191"
   fill="#f15744"
   id="path5"
   style="stroke-width:6.20436" /><path
   fill="#ffce31"
   d="m 61.62498,251.05184 h 11.792973 v 22.94692 H 61.62498 Z"
   id="path6"
   style="stroke-width:6.20436" /><path
   d="m 105.07277,228.10492 c -6.827509,0 -10.551619,4.96149 -8.068879,11.16337 l 9.930919,24.80748 c 2.48274,6.20186 9.93093,10.54318 16.75845,10.54318 h 18.62048 c 6.82752,0 12.41366,-4.96149 12.41366,-11.78356 v -22.94691 c 0,-6.20188 -5.58614,-11.78356 -12.41366,-11.78356 h -37.24097"
   fill="#d33b23"
   id="path7"
   style="stroke-width:6.20436" /><g
   fill="#3e4347"
   id="g12"
   transform="matrix(6.2068294,0,0,6.2018719,25.625364,-17.489224)"><path
     d="m 20.8,28.3 h -7.5 c 0,0 -1.9,0.2 -1.9,2.8 v 4.5 c 0,0 0,2.1 1.9,2.1 h 7.5 v -9.4"
     id="path8" /><circle
     cx="12.3"
     cy="51.700001"
     r="0.89999998"
     id="circle8" /><circle
     cx="9.1000004"
     cy="53.599998"
     r="0.89999998"
     id="circle9" /><path
     d="m 8.6,56.5 c 0.4,-0.3 1,-0.1 1.3,0.3 0.3,0.4 0.1,1 -0.3,1.3 -0.4,0.3 -1,0.1 -1.3,-0.3 -0.3,-0.5 -0.2,-1 0.3,-1.3"
     id="path9" /><circle
     cx="12.3"
     cy="59.200001"
     r="0.89999998"
     id="circle10" /><circle
     cx="15.6"
     cy="57.299999"
     r="0.89999998"
     id="circle11" /><circle
     cx="15.6"
     cy="53.599998"
     r="0.89999998"
     id="circle12" /></g><ellipse
   cx="101.96935"
   cy="326.71466"
   fill="#62727a"
   id="circle13"
   style="stroke-width:6.20436"
   rx="11.792976"
   ry="11.783557" /><g
   fill="#3e4347"
   id="g18"
   transform="matrix(6.2068294,0,0,6.2018719,25.625364,-17.489224)"><circle
     cx="50.799999"
     cy="51.700001"
     r="0.89999998"
     id="circle14" /><circle
     cx="47.5"
     cy="53.599998"
     r="0.89999998"
     id="circle15" /><path
     d="m 47,56.5 c 0.4,-0.3 1,-0.1 1.3,0.3 0.3,0.4 0.1,1 -0.3,1.3 -0.4,0.3 -1,0.1 -1.3,-0.3 -0.3,-0.5 -0.1,-1 0.3,-1.3"
     id="path15" /><circle
     cx="50.799999"
     cy="59.200001"
     r="0.89999998"
     id="circle16" /><circle
     cx="54"
     cy="57.299999"
     r="0.89999998"
     id="circle17" /><circle
     cx="54"
     cy="53.599998"
     r="0.89999998"
     id="circle18" /></g><ellipse
   cx="340.93234"
   cy="326.71466"
   fill="#62727a"
   id="circle19"
   style="stroke-width:6.20436"
   rx="11.792976"
   ry="11.783557" /><g
   fill="#3e4347"
   id="g28"
   transform="matrix(6.2068294,0,0,6.2018719,25.625364,-17.489224)"><path
     d="m 27.3,30.2 v -5.6 c 0,-0.5 0.4,-0.9 0.9,-0.9 h 26.2 c 0.5,0 0.9,0.4 0.9,0.9 v 5.6 h 1.9 v -5.6 c 0,-1.5 -1.3,-2.8 -2.8,-2.8 H 28.2 c -1.6,0 -2.8,1.3 -2.8,2.8 v 5.6 h 1.9"
     id="path27" /><path
     d="m 55.4,39.6 v 3.7 c 0,0.5 -0.4,0.9 -0.9,0.9 H 28.2 c -0.5,0 -0.9,-0.4 -0.9,-0.9 v -3.7 h -1.9 v 3.7 c 0,1.5 1.3,2.8 2.8,2.8 h 26.2 c 1.6,0 2.8,-1.3 2.8,-2.8 v -3.7 h -1.8"
     id="path28" /></g><g
   fill="#b2c1c0"
   id="g31"
   transform="matrix(6.2068294,0,0,6.2018719,25.625364,-17.489224)"><circle
     cx="29.200001"
     cy="25.5"
     r="0.89999998"
     id="circle28" /><circle
     cx="53.599998"
     cy="25.5"
     r="0.89999998"
     id="circle29" /><circle
     cx="29.200001"
     cy="42.400002"
     r="0.89999998"
     id="circle30" /><circle
     cx="53.599998"
     cy="42.400002"
     r="0.89999998"
     id="circle31" /></g><path
   d="m 259.00213,326.71467 c 0,6.20188 -4.96546,11.78357 -11.79298,11.78357 h -46.55122 c -6.20683,0 -11.79297,-4.9615 -11.79297,-11.78357 v -11.78356 c 0,-6.20186 4.96547,-11.78354 11.79297,-11.78354 h 46.55122 c 6.20683,0 11.79298,4.96149 11.79298,11.78354 v 11.78356"
   fill="#62727a"
   id="path31"
   style="stroke-width:6.20436" /><path
   d="m 202.51998,309.34944 c -3.72409,0 -7.44819,2.48074 -7.44819,5.58167 0,3.10095 3.10342,5.5817 7.44819,5.5817 h 43.44781 c 3.7241,0 7.44819,-2.48075 7.44819,-5.5817 0,-3.10093 -3.10341,-5.58167 -7.44819,-5.58167 h -43.44781"
   fill="#b2c1c0"
   id="path32"
   style="stroke-width:6.20436" /><text
   xml:space="preserve"
   style="font-size:48.5537px;text-align:start;writing-mode:lr-tb;direction:ltr;text-anchor:start;fill:#000000;stroke-width:4.04614"
   x="248.43303"
   y="165.06081"
   id="text4"
   transform="scale(0.76647848,1.3046681)"><tspan
     id="tspan4"
     x="248.43303"
     y="165.06081"
     style="font-style:normal;font-variant:normal;font-weight:bold;font-stretch:normal;font-size:48.5537px;font-family:'Book Antiqua';-inkscape-font-specification:'Book Antiqua, Normal';font-variant-ligatures:normal;font-variant-caps:normal;font-variant-numeric:normal;font-variant-east-asian:normal;fill:#ffffff;fill-opacity:1;stroke-width:4.04614"
     sodipodi:role="line">Matrix Inc.</tspan></text><text
   xml:space="preserve"
   style="font-style:normal;font-variant:normal;font-weight:normal;font-stretch:normal;font-size:36.87px;font-family:'Book Antiqua';-inkscape-font-specification:'Book Antiqua, Normal';font-variant-ligatures:normal;font-variant-caps:normal;font-variant-numeric:normal;font-variant-east-asian:normal;text-align:start;writing-mode:lr-tb;direction:ltr;text-anchor:start;fill:#ffffff;fill-opacity:1"
   x="321.42438"
   y="139.58049"
   id="text5"><tspan
     sodipodi:role="line"
     id="tspan5"></tspan></text></svg>
