<?xml version="1.0" encoding="UTF-8" standalone="no"?>
<svg
   width="456"
   height="456"
   viewBox="0 0 456 456"
   version="1.1"
   xml:space="preserve"
   style="fill-rule:evenodd;clip-rule:evenodd;stroke-linejoin:round;stroke-miterlimit:2;"
   id="svg4"
   sodipodi:docname="appiconfg.svg"
   inkscape:version="1.4.2 (f4327f4, 2025-05-13)"
   xmlns:inkscape="http://www.inkscape.org/namespaces/inkscape"
   xmlns:sodipodi="http://sodipodi.sourceforge.net/DTD/sodipodi-0.dtd"
   xmlns="http://www.w3.org/2000/svg"
   xmlns:svg="http://www.w3.org/2000/svg"><defs
   id="defs4" /><sodipodi:namedview
   id="namedview4"
   pagecolor="#ffffff"
   bordercolor="#000000"
   borderopacity="0.25"
   inkscape:showpageshadow="2"
   inkscape:pageopacity="0.0"
   inkscape:pagecheckerboard="0"
   inkscape:deskcolor="#d1d1d1"
   inkscape:zoom="1.7982456"
   inkscape:cx="228"
   inkscape:cy="228"
   inkscape:window-width="1920"
   inkscape:window-height="1001"
   inkscape:window-x="-9"
   inkscape:window-y="-9"
   inkscape:window-maximized="1"
   inkscape:current-layer="svg4" />
    
    
    
    
<path
   d="m 348.79999,272.62721 c 0,-4.11973 -3.48253,-7.82751 -8.27102,-7.82751 H 95.880779 c -4.353172,0 -8.271023,3.2958 -8.271023,7.82751 v 7.82751 c 0,4.11974 3.482538,7.82751 8.271023,7.82751 H 340.52897 c 4.35317,0 8.27102,-3.29579 8.27102,-7.82751 v -7.82751"
   fill="#b2c1c0"
   id="path1"
   style="clip-rule:evenodd;fill-rule:evenodd;stroke-width:4.23485;stroke-linejoin:round;stroke-miterlimit:2" /><ellipse
   cx="132.4474"
   cy="291.98999"
   rx="28.730928"
   ry="26.778305"
   fill="#3e4347"
   id="ellipse1"
   style="clip-rule:evenodd;fill-rule:evenodd;stroke-width:4.23485;stroke-linejoin:round;stroke-miterlimit:2" /><ellipse
   cx="132.4474"
   cy="291.98999"
   rx="16.542049"
   ry="15.243034"
   fill="#b2c1c0"
   id="ellipse2"
   style="clip-rule:evenodd;fill-rule:evenodd;stroke-width:4.23485;stroke-linejoin:round;stroke-miterlimit:2" /><ellipse
   cx="300.04449"
   cy="291.98999"
   rx="28.730928"
   ry="26.778305"
   fill="#3e4347"
   id="ellipse3"
   style="clip-rule:evenodd;fill-rule:evenodd;stroke-width:4.23485;stroke-linejoin:round;stroke-miterlimit:2" /><ellipse
   cx="300.04449"
   cy="291.98999"
   rx="16.542049"
   ry="15.243034"
   fill="#b2c1c0"
   id="ellipse4"
   style="clip-rule:evenodd;fill-rule:evenodd;stroke-width:4.23485;stroke-linejoin:round;stroke-miterlimit:2" /><path
   d="M 316.15121,141.61951 H 201.66282 c -13.49483,0 -24.37776,10.29935 -24.37776,23.07053 V 264.7997 H 340.52897 V 164.69004 c 0,-12.77118 -10.88292,-23.07053 -24.37776,-23.07053"
   fill="#62727a"
   id="path4"
   style="clip-rule:evenodd;fill-rule:evenodd;stroke-width:4.23485;stroke-linejoin:round;stroke-miterlimit:2" /><path
   d="m 144.63628,172.51756 c -19.58927,0 -24.37775,0 -24.37775,30.89804 0,23.07054 -24.377751,23.07054 -24.377751,46.14107 v 15.24303 h 81.839611 v -92.28214 h -33.08411"
   fill="#f15744"
   id="path5"
   style="clip-rule:evenodd;fill-rule:evenodd;stroke-width:4.23485;stroke-linejoin:round;stroke-miterlimit:2" /><path
   fill="#ffce31"
   d="m 104.15181,241.72917 h 8.27102 v 15.24303 h -8.27102 z"
   id="path6"
   style="clip-rule:evenodd;fill-rule:evenodd;stroke-width:4.23485;stroke-linejoin:round;stroke-miterlimit:2" /><path
   d="m 134.62399,226.48614 c -4.78848,0 -7.40039,3.29579 -5.65912,7.41553 l 6.96507,16.47895 c 1.74127,4.11973 6.96508,7.00356 11.75357,7.00356 h 13.05951 c 4.78849,0 8.70634,-3.29579 8.70634,-7.82751 v -15.24302 c 0,-4.11975 -3.91785,-7.82751 -8.70634,-7.82751 h -26.11903"
   fill="#d33b23"
   id="path7"
   style="clip-rule:evenodd;fill-rule:evenodd;stroke-width:4.23485;stroke-linejoin:round;stroke-miterlimit:2" /><g
   fill="#3e4347"
   id="g12"
   transform="matrix(4.3531707,0,0,4.1197391,78.903414,63.344464)"
   style="clip-rule:evenodd;fill-rule:evenodd;stroke-linejoin:round;stroke-miterlimit:2"><path
     d="m 20.8,28.3 h -7.5 c 0,0 -1.9,0.2 -1.9,2.8 v 4.5 c 0,0 0,2.1 1.9,2.1 h 7.5 v -9.4"
     id="path8" /><circle
     cx="12.3"
     cy="51.700001"
     r="0.89999998"
     id="circle8" /><circle
     cx="9.1000004"
     cy="53.599998"
     r="0.89999998"
     id="circle9" /><path
     d="m 8.6,56.5 c 0.4,-0.3 1,-0.1 1.3,0.3 0.3,0.4 0.1,1 -0.3,1.3 -0.4,0.3 -1,0.1 -1.3,-0.3 -0.3,-0.5 -0.2,-1 0.3,-1.3"
     id="path9" /><circle
     cx="12.3"
     cy="59.200001"
     r="0.89999998"
     id="circle10" /><circle
     cx="15.6"
     cy="57.299999"
     r="0.89999998"
     id="circle11" /><circle
     cx="15.6"
     cy="53.599998"
     r="0.89999998"
     id="circle12" /></g><ellipse
   cx="132.4474"
   cy="291.98999"
   fill="#62727a"
   id="circle13"
   style="clip-rule:evenodd;fill-rule:evenodd;stroke-width:4.23485;stroke-linejoin:round;stroke-miterlimit:2"
   rx="8.2710247"
   ry="7.8275046" /><g
   fill="#3e4347"
   id="g18"
   transform="matrix(4.3531707,0,0,4.1197391,78.903414,63.344464)"
   style="clip-rule:evenodd;fill-rule:evenodd;stroke-linejoin:round;stroke-miterlimit:2"><circle
     cx="50.799999"
     cy="51.700001"
     r="0.89999998"
     id="circle14" /><circle
     cx="47.5"
     cy="53.599998"
     r="0.89999998"
     id="circle15" /><path
     d="m 47,56.5 c 0.4,-0.3 1,-0.1 1.3,0.3 0.3,0.4 0.1,1 -0.3,1.3 -0.4,0.3 -1,0.1 -1.3,-0.3 -0.3,-0.5 -0.1,-1 0.3,-1.3"
     id="path15" /><circle
     cx="50.799999"
     cy="59.200001"
     r="0.89999998"
     id="circle16" /><circle
     cx="54"
     cy="57.299999"
     r="0.89999998"
     id="circle17" /><circle
     cx="54"
     cy="53.599998"
     r="0.89999998"
     id="circle18" /></g><ellipse
   cx="300.04449"
   cy="291.98999"
   fill="#62727a"
   id="circle19"
   style="clip-rule:evenodd;fill-rule:evenodd;stroke-width:4.23485;stroke-linejoin:round;stroke-miterlimit:2"
   rx="8.2710247"
   ry="7.8275046" /><g
   fill="#3e4347"
   id="g28"
   transform="matrix(4.3531707,0,0,4.1197391,78.903414,63.344464)"
   style="clip-rule:evenodd;fill-rule:evenodd;stroke-linejoin:round;stroke-miterlimit:2"><path
     d="m 27.3,30.2 v -5.6 c 0,-0.5 0.4,-0.9 0.9,-0.9 h 26.2 c 0.5,0 0.9,0.4 0.9,0.9 v 5.6 h 1.9 v -5.6 c 0,-1.5 -1.3,-2.8 -2.8,-2.8 H 28.2 c -1.6,0 -2.8,1.3 -2.8,2.8 v 5.6 h 1.9"
     id="path27" /><path
     d="m 55.4,39.6 v 3.7 c 0,0.5 -0.4,0.9 -0.9,0.9 H 28.2 c -0.5,0 -0.9,-0.4 -0.9,-0.9 v -3.7 h -1.9 v 3.7 c 0,1.5 1.3,2.8 2.8,2.8 h 26.2 c 1.6,0 2.8,-1.3 2.8,-2.8 v -3.7 h -1.8"
     id="path28" /></g><g
   fill="#b2c1c0"
   id="g31"
   transform="matrix(4.3531707,0,0,4.1197391,78.903414,63.344464)"
   style="clip-rule:evenodd;fill-rule:evenodd;stroke-linejoin:round;stroke-miterlimit:2"><circle
     cx="29.200001"
     cy="25.5"
     r="0.89999998"
     id="circle28" /><circle
     cx="53.599998"
     cy="25.5"
     r="0.89999998"
     id="circle29" /><circle
     cx="29.200001"
     cy="42.400002"
     r="0.89999998"
     id="circle30" /><circle
     cx="53.599998"
     cy="42.400002"
     r="0.89999998"
     id="circle31" /></g><path
   d="m 242.58263,291.98998 c 0,4.11975 -3.48254,7.82752 -8.27103,7.82752 h -32.64878 c -4.35317,0 -8.27102,-3.2958 -8.27102,-7.82752 v -7.8275 c 0,-4.11974 3.48254,-7.8275 8.27102,-7.8275 h 32.64878 c 4.35317,0 8.27103,3.29579 8.27103,7.8275 v 7.8275"
   fill="#62727a"
   id="path31"
   style="clip-rule:evenodd;fill-rule:evenodd;stroke-width:4.23485;stroke-linejoin:round;stroke-miterlimit:2" /><path
   d="m 202.96877,280.45472 c -2.6119,0 -5.2238,1.64789 -5.2238,3.70776 0,2.05987 2.17659,3.70777 5.2238,3.70777 h 30.4722 c 2.6119,0 5.2238,-1.6479 5.2238,-3.70777 0,-2.05987 -2.17658,-3.70776 -5.2238,-3.70776 h -30.4722"
   fill="#b2c1c0"
   id="path32"
   style="clip-rule:evenodd;fill-rule:evenodd;stroke-width:4.23485;stroke-linejoin:round;stroke-miterlimit:2" /><text
   xml:space="preserve"
   style="font-size:33.1409px;text-align:start;writing-mode:lr-tb;direction:ltr;text-anchor:start;clip-rule:evenodd;fill:#000000;fill-rule:evenodd;stroke-width:2.76174;stroke-linejoin:round;stroke-miterlimit:2"
   x="246.93558"
   y="171.70268"
   id="text4"
   transform="scale(0.78757956,1.269713)"><tspan
     id="tspan4"
     x="246.93558"
     y="171.70268"
     style="font-style:normal;font-variant:normal;font-weight:bold;font-stretch:normal;font-size:33.1409px;font-family:'Book Antiqua';-inkscape-font-specification:'Book Antiqua, Normal';font-variant-ligatures:normal;font-variant-caps:normal;font-variant-numeric:normal;font-variant-east-asian:normal;fill:#ffffff;fill-opacity:1;stroke-width:2.76174"
     sodipodi:role="line">Matrix Inc.</tspan></text></svg>
